<svg width="32" height="31" viewBox="0 0 32 31" fill="none" xmlns="http://www.w3.org/2000/svg">
<g clip-path="url(#clip0)">
<path d="M31.936 16.8366C31.6727 14.1956 30.5831 11.7049 28.8223 9.71897C27.0615 7.73306 24.7192 6.3531 22.1287 5.77548V4.18444C22.6321 4.05932 23.0724 3.75433 23.3666 3.32696C23.6607 2.8996 23.7883 2.3794 23.7253 1.86444C23.6623 1.34949 23.4131 0.875367 23.0247 0.53147C22.6363 0.187574 22.1354 -0.00233251 21.6167 -0.00244141H17.1155C16.5967 -0.00233251 16.0959 0.187574 15.7075 0.53147C15.3191 0.875367 15.0699 1.34949 15.0069 1.86444C14.9439 2.3794 15.0715 2.8996 15.3656 3.32696C15.6598 3.75433 16.1001 4.05932 16.6035 4.18444V5.77676C14.2715 6.29639 12.1362 7.47094 10.4487 9.16236C10.0699 9.54105 9.71546 9.94335 9.38754 10.3668C9.37154 10.3668 9.35618 10.3668 9.34018 10.3668H4.88578C4.80202 10.3642 4.71859 10.3783 4.64042 10.4085C4.56226 10.4387 4.49096 10.4843 4.43077 10.5426C4.37057 10.6009 4.32271 10.6707 4.29003 10.7479C4.25734 10.8251 4.2405 10.908 4.2405 10.9918C4.2405 11.0756 4.25734 11.1585 4.29003 11.2357C4.32271 11.3129 4.37057 11.3827 4.43077 11.441C4.49096 11.4993 4.56226 11.5449 4.64042 11.5751C4.71859 11.6053 4.80202 11.6194 4.88578 11.6168H8.53378C8.0803 12.3762 7.70852 13.1816 7.42466 14.0193H0.625298C0.46301 14.0245 0.309106 14.0926 0.196144 14.2093C0.0831813 14.3259 0.0200195 14.4819 0.0200195 14.6443C0.0200195 14.8067 0.0831813 14.9627 0.196144 15.0793C0.309106 15.1959 0.46301 15.264 0.625298 15.2692H7.07394C6.8942 16.0584 6.79026 16.8629 6.76354 17.6718H4.00002C3.83773 17.677 3.68383 17.7451 3.57086 17.8617C3.4579 17.9784 3.39474 18.1344 3.39474 18.2968C3.39474 18.4591 3.4579 18.6151 3.57086 18.7318C3.68383 18.8484 3.83773 18.9165 4.00002 18.9217H6.78402C6.83686 19.7332 6.9676 20.5378 7.17442 21.3243H3.12514C2.96285 21.3295 2.80895 21.3976 2.69598 21.5142C2.58302 21.6309 2.51986 21.7869 2.51986 21.9492C2.51986 22.1116 2.58302 22.2676 2.69598 22.3843C2.80895 22.5009 2.96285 22.569 3.12514 22.5742H7.57314C8.4064 24.7698 9.83562 26.6895 11.7001 28.1173C13.5646 29.5452 15.7905 30.4246 18.1274 30.6568C18.5404 30.6994 18.9532 30.7208 19.3658 30.7208C21.811 30.7219 24.2042 30.0145 26.256 28.6843C26.3269 28.6404 26.3882 28.5829 26.4365 28.5149C26.4848 28.447 26.519 28.3702 26.5371 28.2889C26.5553 28.2075 26.557 28.1234 26.5422 28.0414C26.5274 27.9595 26.4963 27.8813 26.4508 27.8114C26.4054 27.7416 26.3464 27.6816 26.2774 27.6349C26.2084 27.5882 26.1308 27.5557 26.0491 27.5394C25.9674 27.5231 25.8833 27.5234 25.8016 27.54C25.72 27.5567 25.6425 27.5896 25.5738 27.6366C23.2171 29.1681 20.377 29.7729 17.6009 29.3345C14.8248 28.8961 12.3092 27.4455 10.5392 25.2623C8.76919 23.0791 7.87005 20.318 8.01512 17.5112C8.16018 14.7045 9.33918 12.0507 11.3248 10.0617C13.3105 8.07263 15.9621 6.88908 18.7687 6.7392C21.5752 6.58931 24.3379 7.48371 26.5241 9.24996C28.7102 11.0162 30.1652 13.5293 30.6084 16.3046C31.0515 19.08 30.4516 21.9212 28.9242 24.2804C28.8767 24.3492 28.8435 24.4268 28.8266 24.5087C28.8096 24.5905 28.8092 24.6749 28.8254 24.7569C28.8417 24.8389 28.8742 24.9168 28.921 24.9861C28.9679 25.0553 29.0281 25.1144 29.0982 25.1599C29.1683 25.2055 29.2468 25.2365 29.3291 25.2511C29.4114 25.2658 29.4958 25.2638 29.5773 25.2453C29.6588 25.2268 29.7358 25.1921 29.8036 25.1434C29.8715 25.0946 29.9289 25.0327 29.9725 24.9614C31.5276 22.5534 32.2198 19.689 31.936 16.8366ZM16.2407 2.12492C16.241 1.89299 16.3333 1.67066 16.4973 1.50666C16.6613 1.34266 16.8836 1.25038 17.1155 1.25004H21.6154C21.8474 1.25004 22.0699 1.34221 22.234 1.50628C22.3981 1.67036 22.4903 1.89289 22.4903 2.12492C22.4903 2.35695 22.3981 2.57948 22.234 2.74355C22.0699 2.90762 21.8474 2.9998 21.6154 2.9998H17.1155C16.8836 2.99946 16.6613 2.90718 16.4973 2.74318C16.3333 2.57918 16.241 2.35685 16.2407 2.12492ZM17.856 5.56492V4.24844H20.8819V5.56108C19.8767 5.44211 18.8609 5.4434 17.856 5.56492Z" fill="white"/>
<path d="M27.7903 25.8716C27.643 25.8712 27.5001 25.9219 27.3861 26.015C27.272 26.1082 27.1938 26.238 27.1648 26.3824C27.1358 26.5268 27.1578 26.6767 27.227 26.8067C27.2962 26.9367 27.4083 27.0386 27.5443 27.0952C27.6803 27.1517 27.8317 27.1593 27.9726 27.1167C28.1136 27.0741 28.2354 26.9839 28.3173 26.8615C28.3991 26.7391 28.436 26.5921 28.4216 26.4455C28.4072 26.299 28.3424 26.1619 28.2383 26.0578C28.1192 25.9393 27.9582 25.8725 27.7903 25.8716Z" fill="white"/>
<path d="M19.1586 8.01416C17.2082 8.01416 15.3015 8.59255 13.6797 9.67617C12.058 10.7598 10.794 12.3 10.0476 14.102C9.30115 15.904 9.10585 17.8869 9.48637 19.7999C9.86689 21.7129 10.8061 23.4701 12.1853 24.8492C13.5645 26.2284 15.3217 27.1677 17.2347 27.5482C19.1477 27.9287 21.1306 27.7334 22.9326 26.987C24.7346 26.2406 26.2748 24.9766 27.3584 23.3548C28.442 21.7331 29.0204 19.8264 29.0204 17.8759C29.0174 15.2614 27.9774 12.7548 26.1286 10.906C24.2798 9.0572 21.7732 8.01721 19.1586 8.01416ZM19.1586 26.4666C17.4595 26.4672 15.7983 25.9637 14.3852 25.0201C12.9721 24.0764 11.8706 22.7349 11.22 21.1652C10.5694 19.5955 10.3989 17.8681 10.7301 16.2015C11.0613 14.5349 11.8793 13.004 13.0806 11.8023C14.282 10.6006 15.8127 9.78214 17.4792 9.45046C19.1457 9.11878 20.8731 9.28875 22.443 9.93889C24.0129 10.589 25.3548 11.6901 26.2988 13.1029C27.2429 14.5157 27.7468 16.1767 27.7468 17.8759C27.7443 20.1531 26.8387 22.3363 25.2287 23.9468C23.6188 25.5572 21.4358 26.4634 19.1586 26.4666Z" fill="white"/>
<path d="M23.3568 13.1912L20.208 16.34C19.9367 16.206 19.6381 16.1363 19.3354 16.1363C19.0327 16.1363 18.7341 16.206 18.4628 16.34L17.0548 14.932C16.9978 14.8654 16.9277 14.8112 16.8488 14.773C16.77 14.7348 16.684 14.7132 16.5965 14.7098C16.5089 14.7064 16.4215 14.7211 16.3399 14.753C16.2583 14.785 16.1842 14.8335 16.1222 14.8955C16.0602 14.9574 16.0117 15.0316 15.9798 15.1132C15.9478 15.1948 15.9331 15.2822 15.9365 15.3697C15.94 15.4573 15.9615 15.5433 15.9997 15.6221C16.038 15.701 16.0921 15.7711 16.1588 15.828L17.5668 17.236C17.4182 17.5372 17.3488 17.8714 17.3653 18.2068C17.3817 18.5423 17.4835 18.868 17.6608 19.1532C17.8381 19.4385 18.0853 19.6738 18.3788 19.8369C18.6724 20.0001 19.0027 20.0857 19.3386 20.0857C19.6745 20.0857 20.0048 20.0001 20.2984 19.8369C20.5919 19.6738 20.8391 19.4385 21.0164 19.1532C21.1937 18.868 21.2955 18.5423 21.3119 18.2068C21.3284 17.8714 21.259 17.5372 21.1104 17.236L24.1664 14.18L24.2586 14.0879C24.3625 13.9663 24.4167 13.81 24.4104 13.6502C24.4042 13.4904 24.3379 13.3388 24.2248 13.2257C24.1117 13.1126 23.9601 13.0463 23.8003 13.04C23.6405 13.0338 23.4842 13.088 23.3626 13.1919L23.3568 13.1912ZM19.337 18.8168C19.1978 18.8168 19.0617 18.7755 18.9459 18.6982C18.8301 18.6208 18.7399 18.5109 18.6866 18.3822C18.6333 18.2536 18.6194 18.1121 18.6465 17.9755C18.6737 17.8389 18.7407 17.7135 18.8392 17.615C18.9377 17.5166 19.0631 17.4495 19.1996 17.4224C19.3362 17.3952 19.4778 17.4091 19.6064 17.4624C19.735 17.5157 19.845 17.6059 19.9224 17.7217C19.9997 17.8375 20.041 17.9736 20.041 18.1128C20.041 18.2995 19.9668 18.4786 19.8348 18.6106C19.7028 18.7427 19.5237 18.8168 19.337 18.8168Z" fill="white"/>
<path d="M26.0533 17.4624H25.4645C25.2958 17.4624 25.1341 17.5294 25.0149 17.6487C24.8956 17.7679 24.8286 17.9296 24.8286 18.0982C24.8286 18.2669 24.8956 18.4286 25.0149 18.5478C25.1341 18.6671 25.2958 18.7341 25.4645 18.7341H26.0533C26.2219 18.7341 26.3836 18.6671 26.5029 18.5478C26.6221 18.4286 26.6891 18.2669 26.6891 18.0982C26.6891 17.9296 26.6221 17.7679 26.5029 17.6487C26.3836 17.5294 26.2219 17.4624 26.0533 17.4624Z" fill="white"/>
<path d="M13.2827 17.4473H12.6939C12.5253 17.4473 12.3636 17.5143 12.2443 17.6335C12.1251 17.7527 12.0581 17.9145 12.0581 18.0831C12.0581 18.2517 12.1251 18.4135 12.2443 18.5327C12.3636 18.652 12.5253 18.7189 12.6939 18.7189H13.2827C13.4514 18.7189 13.6131 18.652 13.7324 18.5327C13.8516 18.4135 13.9186 18.2517 13.9186 18.0831C13.9186 17.9145 13.8516 17.7527 13.7324 17.6335C13.6131 17.5143 13.4514 17.4473 13.2827 17.4473Z" fill="white"/>
<path d="M19.3808 12.6336C19.5493 12.6336 19.711 12.5666 19.8302 12.4475C19.9493 12.3283 20.0163 12.1666 20.0163 11.9981V11.4093C20.0163 11.3258 19.9999 11.2431 19.9679 11.1659C19.936 11.0888 19.8891 11.0187 19.8301 10.9597C19.771 10.9006 19.7009 10.8538 19.6238 10.8218C19.5466 10.7899 19.464 10.7734 19.3805 10.7734C19.297 10.7734 19.2143 10.7899 19.1371 10.8218C19.06 10.8538 18.9899 10.9006 18.9309 10.9597C18.8718 11.0187 18.825 11.0888 18.793 11.1659C18.7611 11.2431 18.7446 11.3258 18.7446 11.4093V11.9981C18.7446 12.0816 18.7611 12.1643 18.7931 12.2414C18.825 12.3186 18.8719 12.3887 18.931 12.4477C18.9901 12.5067 19.0602 12.5535 19.1374 12.5854C19.2146 12.6173 19.2973 12.6337 19.3808 12.6336Z" fill="white"/>
<path d="M19.3655 23.5459C19.197 23.5459 19.0353 23.6128 18.9161 23.732C18.7969 23.8512 18.73 24.0129 18.73 24.1814V24.7702C18.73 24.9389 18.797 25.1006 18.9162 25.2198C19.0355 25.3391 19.1972 25.4061 19.3658 25.4061C19.5345 25.4061 19.6962 25.3391 19.8154 25.2198C19.9347 25.1006 20.0017 24.9389 20.0017 24.7702V24.1814C20.0017 24.0979 19.9852 24.0152 19.9532 23.9381C19.9212 23.8609 19.8744 23.7908 19.8153 23.7318C19.7562 23.6728 19.6861 23.626 19.6089 23.5941C19.5317 23.5622 19.449 23.5458 19.3655 23.5459Z" fill="white"/>
<path d="M0.63573 21.3081C0.531479 21.3084 0.428898 21.3343 0.337032 21.3836C0.245165 21.4329 0.166834 21.504 0.108943 21.5907C0.0510518 21.6774 0.0153789 21.777 0.00506876 21.8808C-0.00524137 21.9845 0.0101279 22.0892 0.0498219 22.1856C0.0895158 22.282 0.152315 22.3672 0.232684 22.4336C0.313053 22.5 0.408524 22.5456 0.51068 22.5664C0.612836 22.5872 0.71854 22.5825 0.818475 22.5528C0.918409 22.5231 1.0095 22.4693 1.08373 22.3961C1.1736 22.3075 1.23503 22.1941 1.26022 22.0704C1.2854 21.9467 1.27318 21.8184 1.22512 21.7016C1.17707 21.5849 1.09535 21.4852 0.990377 21.4151C0.885409 21.345 0.761947 21.3078 0.63573 21.3081Z" fill="white"/>
</g>
<defs>
<clipPath id="clip0">
<rect width="32" height="30.7174" fill="white"/>
</clipPath>
</defs>
</svg>
